<?xml version="1.0" standalone="no"?>
<!DOCTYPE svg PUBLIC "-//W3C//DTD SVG 20010904//EN"
 "http://www.w3.org/TR/2001/REC-SVG-20010904/DTD/svg10.dtd">
<svg version="1.0" xmlns="http://www.w3.org/2000/svg"
 width="50.000000pt" height="50.000000pt" viewBox="0 0 50.000000 50.000000"
 preserveAspectRatio="xMidYMid meet">

<g transform="translate(0.000000,50.000000) scale(0.100000,-0.100000)"
fill="#44cea0" stroke="none">
<path d="M310 481 c-47 -15 -88 -40 -115 -72 -29 -35 -30 -53 -5 -140 12 -42
12 -50 -3 -73 -25 -37 -37 -32 -37 17 -1 56 -28 115 -74 155 -54 47 -73 44
-36 -6 30 -40 35 -92 16 -148 -21 -63 -20 -95 5 -149 27 -56 35 -62 61 -38 17
15 37 18 118 18 90 0 100 2 124 24 16 15 34 51 46 91 12 39 30 76 45 90 34 32
32 44 -7 36 -42 -8 -82 -47 -98 -96 -13 -41 -32 -62 -62 -73 -22 -8 -23 1 -3
23 29 32 30 83 1 145 -14 32 -26 66 -26 77 0 34 27 73 64 93 54 29 46 44 -14
26z m-56 -68 c-20 -40 -17 -70 11 -131 14 -30 25 -62 25 -73 0 -34 -23 -69
-53 -81 -17 -7 -50 -23 -74 -34 -60 -29 -57 -8 7 60 54 58 60 80 35 139 -22
54 -19 82 16 116 38 38 52 40 33 4z m-140 -127 c20 -43 20 -90 -1 -157 -22
-74 -29 -78 -44 -29 -10 34 -10 49 1 83 7 23 14 65 14 94 1 57 6 59 30 9z
m302 -49 c-9 -12 -20 -46 -26 -74 -8 -38 -20 -60 -42 -78 -31 -26 -49 -29
-138 -18 -60 7 -46 21 23 22 67 2 105 25 129 78 17 41 54 93 65 93 2 0 -3 -10
-11 -23z"/>
<path d="M370 430 c0 -5 5 -10 10 -10 6 0 10 5 10 10 0 6 -4 10 -10 10 -5 0
-10 -4 -10 -10z"/>
<path d="M420 390 c0 -5 5 -10 10 -10 6 0 10 5 10 10 0 6 -4 10 -10 10 -5 0
-10 -4 -10 -10z"/>
<path d="M344 346 c-10 -26 4 -48 28 -44 33 4 33 52 0 56 -13 2 -25 -3 -28
-12z m36 -16 c0 -5 -4 -10 -10 -10 -5 0 -10 5 -10 10 0 6 5 10 10 10 6 0 10
-4 10 -10z"/>
</g>
</svg>
